<?xml version="1.0" standalone="no"?>
<!DOCTYPE svg PUBLIC "-//W3C//DTD SVG 20010904//EN"
 "http://www.w3.org/TR/2001/REC-SVG-20010904/DTD/svg10.dtd">
<svg version="1.0" xmlns="http://www.w3.org/2000/svg"
 width="1200.000000pt" height="1200.000000pt" viewBox="0 0 1200.000000 1200.000000"
 preserveAspectRatio="xMidYMid meet">

<g transform="translate(0.000000,1200.000000) scale(0.100000,-0.100000)"
fill="#000000" stroke="none">
<path d="M1610 6765 c-349 -75 -594 -364 -616 -730 -15 -239 107 -506 297
-649 422 -317 1032 -151 1217 331 41 107 56 212 49 336 -8 128 -24 187 -83
307 -40 81 -61 109 -138 185 -50 50 -120 107 -156 128 -159 92 -392 129 -570
92z m239 -135 c297 -38 520 -262 550 -553 41 -391 -237 -706 -624 -707 -368
-1 -642 291 -623 664 9 168 66 300 182 417 110 112 230 165 421 188 6 0 48 -4
94 -9z"/>
<path d="M3020 6735 c0 -3 0 -335 0 -737 l0 -733 360 -3 360 -2 0 70 0 70
-287 2 -288 3 -3 668 -2 667 -70 0 c-39 0 -70 -2 -70 -5z"/>
<path d="M4656 6648 c-111 -236 -455 -959 -587 -1237 -38 -79 -69 -146 -69
-148 0 -1 35 -3 79 -3 51 0 82 4 88 13 5 6 58 116 119 244 l109 232 320 1 321
0 118 -245 119 -245 79 0 c43 0 78 1 78 3 0 2 -14 32 -31 68 -18 35 -62 129
-99 209 -37 80 -167 359 -290 620 -122 261 -234 499 -247 528 -37 78 -53 72
-107 -40z m189 -485 c66 -140 122 -260 123 -264 2 -5 -109 -9 -247 -9 -148 0
-251 4 -251 9 0 14 243 521 249 521 3 -1 60 -116 126 -257z"/>
<path d="M5820 6000 l0 -741 73 3 72 3 3 341 2 341 208 6 c293 8 385 35 478
142 65 74 88 139 88 255 0 82 -3 103 -26 152 -37 79 -78 128 -142 167 -97 58
-130 63 -458 68 l-298 5 0 -742z m549 590 c108 -18 162 -56 200 -140 42 -93
21 -209 -51 -282 -55 -54 -124 -69 -354 -75 -194 -6 -194 -6 -194 15 0 12 0
123 0 247 0 124 0 230 0 235 0 13 315 13 399 0z"/>
<path d="M7200 6000 l0 -740 360 0 360 0 0 70 0 70 -285 0 -285 0 0 670 0 670
-75 0 -75 0 0 -740z"/>
<path d="M8319 6736 c-2 -2 -3 -336 -1 -740 l2 -736 423 2 422 3 3 68 3 67
-351 0 -350 0 0 295 0 295 350 0 350 0 0 70 0 70 -350 0 -350 0 0 235 0 235
350 0 350 0 0 70 0 70 -423 0 c-233 0 -426 -2 -428 -4z"/>
<path d="M9510 6735 c0 -3 22 -40 48 -83 207 -330 383 -625 379 -636 -3 -8
-105 -173 -226 -369 -121 -195 -224 -362 -227 -371 -5 -14 5 -16 77 -16 l84 0
145 232 c80 127 164 263 188 302 24 39 46 74 50 78 6 6 110 -156 313 -489 l74
-122 88 -1 c48 0 87 2 87 4 0 2 -71 118 -158 257 -235 377 -305 493 -305 504
0 9 59 107 325 535 l109 175 -82 3 c-58 2 -86 -1 -94 -10 -7 -7 -86 -132 -175
-278 -89 -146 -166 -269 -170 -273 -4 -5 -56 71 -116 168 -60 96 -139 224
-175 283 l-67 107 -86 3 c-47 1 -86 0 -86 -3z"/>
<path d="M10880 5389 c-64 -25 -80 -101 -31 -150 80 -79 207 22 145 116 -8 13
-29 28 -46 34 -36 13 -35 13 -68 0z m80 -19 c25 -13 41 -65 30 -94 -11 -29
-47 -56 -76 -56 -29 0 -70 34 -78 65 -7 27 15 80 36 88 22 9 68 7 88 -3z"/>
<path d="M10877 5353 c-11 -10 -8 -103 3 -103 6 0 10 9 10 20 0 15 7 20 25 20
18 0 25 -5 25 -20 0 -11 4 -20 9 -20 13 0 11 81 -2 98 -10 13 -59 17 -70 5z
m63 -28 c0 -9 -9 -15 -25 -15 -16 0 -25 6 -25 15 0 9 9 15 25 15 16 0 25 -6
25 -15z"/>
</g>
</svg>
