<?xml version="1.0" standalone="no"?>
<!DOCTYPE svg PUBLIC "-//W3C//DTD SVG 20010904//EN"
 "http://www.w3.org/TR/2001/REC-SVG-20010904/DTD/svg10.dtd">
<svg version="1.0" xmlns="http://www.w3.org/2000/svg"
 width="800.000000pt" height="800.000000pt" viewBox="0 0 800.000000 800.000000"
 preserveAspectRatio="xMidYMid meet">

<g transform="translate(0.000000,800.000000) scale(0.100000,-0.100000)"
fill="#000000" stroke="none">
<path d="M387 5053 c-4 -3 -7 -12 -7 -20 0 -9 15 -13 50 -13 38 0 50 -4 50
-15 0 -8 0 -242 0 -520 0 -278 0 -512 0 -520 0 -11 -12 -15 -50 -15 -43 0 -50
-3 -50 -20 0 -20 7 -20 365 -20 221 0 384 4 414 11 111 24 184 133 185 279 1
66 -3 84 -32 142 -23 47 -47 78 -82 106 l-50 40 38 24 c22 15 50 48 67 79 24
45 30 69 33 139 2 47 -1 103 -7 126 -15 54 -63 124 -106 153 -66 44 -125 51
-481 51 -182 0 -334 -3 -337 -7z m278 -568 l0 -530 -72 -3 -73 -3 0 536 0 536
73 -3 72 -3 0 -530z m265 516 c24 -12 44 -36 64 -74 51 -98 47 -294 -7 -371
-28 -39 -74 -56 -157 -56 l-70 0 0 260 0 260 68 0 c46 0 78 -6 102 -19z m191
-16 c54 -35 93 -120 98 -213 6 -130 -38 -223 -123 -258 -25 -11 -46 -22 -46
-26 0 -4 17 -16 39 -27 102 -53 142 -116 149 -236 6 -106 -9 -155 -61 -209
-42 -44 -92 -66 -150 -66 l-28 0 24 43 c37 64 50 137 44 241 -6 109 -28 177
-71 219 l-31 30 30 32 c44 45 65 123 65 237 0 102 -26 214 -55 238 -28 23 -17
33 32 26 26 -3 64 -17 84 -31z m-164 -551 c15 -11 39 -41 53 -65 23 -40 25
-54 25 -164 0 -108 -2 -125 -25 -170 -33 -67 -70 -85 -172 -85 l-78 0 0 256 0
256 84 -3 c66 -3 91 -9 113 -25z"/>
<path d="M1835 5048 c-27 -75 -80 -238 -169 -513 -59 -181 -126 -387 -149
-457 l-41 -128 -54 0 c-46 0 -53 -3 -50 -17 3 -16 18 -18 126 -21 117 -2 122
-2 122 18 0 17 -6 20 -50 20 -27 0 -50 2 -50 6 0 3 27 88 61 190 l61 184 199
-2 200 -3 59 -180 c33 -99 60 -183 60 -187 0 -5 -22 -8 -50 -8 -43 0 -50 -3
-50 -20 0 -19 7 -20 250 -20 243 0 250 1 250 20 0 17 -7 20 -44 20 l-45 0 -86
268 c-47 147 -102 314 -121 372 -19 58 -60 186 -92 285 l-58 180 -137 3 c-105
2 -138 0 -142 -10z m242 -215 c33 -104 111 -340 172 -526 61 -186 111 -342
111 -348 0 -5 -34 -9 -75 -9 -69 0 -76 2 -85 23 -5 12 -70 211 -145 442 -75
231 -149 459 -165 507 -15 48 -26 89 -22 92 3 3 37 6 76 6 l71 0 62 -187z
m-208 35 c99 -315 144 -456 152 -475 l9 -23 -185 0 c-138 0 -185 3 -185 12 0
7 38 130 85 273 47 144 85 267 85 273 0 33 19 4 39 -60z"/>
<path d="M2625 5050 c-12 -19 6 -30 51 -30 l44 0 0 -535 0 -535 -50 0 c-43 0
-50 -3 -50 -20 0 -20 7 -20 430 -20 l430 0 0 170 c0 144 -2 170 -15 170 -11 0
-15 -12 -15 -51 0 -71 -17 -122 -56 -168 -52 -60 -97 -74 -256 -79 l-138 -4
-2 508 c-2 280 -2 521 0 537 3 25 6 27 53 27 43 0 50 3 47 18 -3 15 -23 17
-235 20 -149 1 -234 -1 -238 -8z m270 -565 l0 -530 -72 -3 -73 -3 0 536 0 536
73 -3 72 -3 0 -530z"/>
<path d="M3537 5053 c-4 -3 -7 -12 -7 -20 0 -9 15 -13 50 -13 l50 0 1 -515 c1
-283 2 -523 3 -532 1 -15 -8 -19 -46 -21 -40 -3 -48 -6 -48 -23 0 -18 8 -19
115 -19 108 0 115 1 115 20 0 17 -7 20 -50 20 l-50 0 0 470 c0 259 3 470 6
470 3 0 23 -39 46 -87 196 -426 313 -672 326 -685 4 -4 12 -4 18 0 11 7 89
182 260 582 48 113 91 209 95 214 5 6 9 -208 9 -477 l0 -487 -55 0 c-48 0 -55
-2 -55 -20 0 -20 7 -20 369 -20 346 0 369 1 367 18 -2 13 -14 18 -55 20 -44 3
-51 6 -46 20 3 9 31 94 63 187 l57 170 200 0 200 0 62 -185 c34 -102 62 -186
63 -187 0 -1 -24 -3 -52 -5 -39 -2 -53 -7 -53 -18 0 -13 62 -15 495 -15 433 0
495 2 495 15 0 11 -14 16 -50 20 l-50 5 -3 533 -2 532 56 0 c47 0 55 3 52 18
-3 16 -24 17 -246 20 -237 2 -242 2 -242 -18 0 -17 7 -20 50 -20 l50 0 0 -535
0 -536 -97 3 -98 3 -36 110 c-44 131 -220 675 -280 863 l-42 132 -137 0 -138
0 -10 -27 c-6 -16 -63 -190 -127 -388 -64 -198 -141 -435 -172 -527 l-55 -168
-99 0 -99 0 -1 520 c-1 286 -2 526 -3 533 -1 7 17 14 47 17 26 3 47 8 47 13 0
4 0 12 0 17 0 6 -68 10 -184 10 l-184 0 -52 -122 c-29 -68 -61 -141 -71 -164
-10 -22 -27 -63 -38 -90 -43 -107 -83 -186 -90 -178 -4 5 -42 81 -83 169 -41
88 -99 211 -128 273 l-53 112 -187 0 c-103 0 -190 -3 -193 -7z m327 -125 c24
-51 87 -187 140 -303 53 -115 103 -222 111 -236 13 -24 12 -33 -18 -107 -18
-45 -35 -82 -38 -82 -7 0 -58 102 -106 210 -14 30 -60 129 -102 220 -137 290
-171 366 -171 378 0 8 23 12 71 12 l70 0 43 -92z m746 -443 l0 -536 -70 3 -70
3 0 515 c0 283 0 523 0 533 0 14 10 17 70 17 l70 0 0 -535z m848 508 c15 -40
334 -1016 336 -1028 0 -6 -32 -11 -75 -13 l-76 -3 -26 73 c-13 40 -69 208
-122 373 -53 165 -119 368 -146 451 -27 83 -49 156 -49 162 0 8 24 12 74 12
71 0 74 -1 84 -27z m827 -508 l0 -530 -72 -3 -73 -3 0 536 0 536 73 -3 72 -3
0 -530z m-935 233 c40 -123 80 -250 91 -282 10 -33 19 -61 19 -63 0 -1 -83 -3
-185 -3 -102 0 -185 1 -185 3 0 4 25 83 99 317 87 273 79 250 85 250 3 0 37
-100 76 -222z"/>
<path d="M6637 5053 c-4 -3 -7 -12 -7 -20 0 -9 15 -13 50 -13 l50 0 2 -520 c0
-286 1 -526 2 -532 1 -9 -17 -14 -52 -16 -44 -3 -53 -6 -50 -20 3 -15 20 -17
123 -20 116 -2 121 -2 121 18 0 18 -7 20 -53 20 l-53 0 0 492 c0 271 4 488 8
483 5 -6 71 -120 147 -255 77 -135 206 -361 287 -504 81 -142 148 -263 148
-267 0 -5 36 -9 79 -9 64 0 80 3 85 16 4 9 6 262 6 563 l-1 546 51 3 c42 3 50
6 50 23 0 19 -6 19 -122 17 -101 -3 -123 -6 -123 -18 0 -11 14 -16 50 -20 l50
-5 2 -375 3 -375 -20 25 c-12 14 -29 41 -39 60 -11 19 -79 136 -152 260 -72
124 -161 276 -197 338 l-66 112 -186 0 c-103 0 -190 -3 -193 -7z m301 -60 c10
-16 50 -82 89 -148 80 -138 307 -524 331 -566 125 -210 132 -224 132 -282 l0
-57 -52 0 -53 1 -155 271 c-85 149 -167 293 -182 319 -15 27 -81 143 -148 257
-66 115 -120 214 -120 220 0 8 23 12 69 12 65 0 71 -2 89 -27z"/>
<path d="M3150 3320 c0 -4 8 -10 19 -13 16 -4 19 -18 26 -99 8 -107 0 -164
-24 -177 -27 -16 -6 -22 65 -19 62 3 66 4 43 15 -36 16 -39 29 -39 148 0 123
4 135 40 135 41 0 72 -32 72 -75 0 -45 -16 -65 -53 -65 -16 0 -29 -4 -29 -10
0 -15 57 -12 89 5 55 28 60 112 8 145 -24 15 -217 24 -217 10z"/>
<path d="M3585 3184 c-38 -80 -75 -148 -82 -151 -31 -12 -9 -23 45 -23 56 1
57 1 30 16 -33 17 -34 28 -8 72 16 26 26 32 52 31 70 -3 84 -9 102 -46 16 -33
16 -37 0 -54 -17 -18 -15 -19 49 -19 66 0 89 12 45 24 -18 4 -36 35 -84 148
-33 78 -65 143 -70 145 -5 2 -40 -63 -79 -143z m85 30 c11 -26 20 -50 20 -55
0 -5 -20 -9 -45 -9 -25 0 -45 4 -45 10 0 10 42 100 47 100 1 0 11 -21 23 -46z"/>
<path d="M3940 3321 c0 -4 10 -11 23 -16 21 -10 22 -16 25 -135 3 -119 2 -125
-20 -142 -23 -17 -22 -18 50 -18 76 0 87 5 47 20 -23 9 -25 15 -25 70 0 57 1
60 24 60 19 0 35 -16 73 -72 44 -67 51 -73 86 -76 41 -4 49 8 15 23 -18 8 -95
115 -97 136 -1 3 10 11 23 17 51 23 40 103 -18 127 -33 14 -206 19 -206 6z
m185 -36 c47 -46 21 -105 -46 -105 l-39 0 0 65 0 65 30 0 c19 0 40 -9 55 -25z"/>
<path d="M4360 3318 c0 -4 9 -8 19 -8 27 0 31 -18 31 -151 0 -97 -3 -121 -15
-125 -34 -13 -11 -24 50 -24 66 0 86 12 40 24 l-25 6 0 131 c0 106 3 131 15
135 32 13 12 21 -50 21 -36 0 -65 -4 -65 -9z"/>
<path d="M4665 3305 c-33 -32 -34 -83 -2 -113 12 -12 42 -28 67 -37 53 -19 80
-41 80 -67 0 -83 -113 -87 -153 -6 -16 31 -17 31 -17 8 0 -49 11 -69 47 -81
78 -25 153 18 153 89 0 54 -27 85 -99 111 -48 17 -62 27 -67 47 -16 63 75 78
127 22 l29 -32 0 35 c0 34 -2 37 -37 43 -72 11 -103 7 -128 -19z"/>
<path d="M1665 2838 c-2 -7 -6 -59 -7 -116 -3 -92 -1 -102 15 -102 14 0 17 9
17 50 l0 50 81 0 81 0 -4 -50 c-2 -34 1 -51 10 -55 20 -7 23 13 20 125 -2 72
-7 105 -15 108 -9 2 -13 -11 -13 -47 l0 -51 -80 0 -80 0 0 44 c0 43 -15 71
-25 44z"/>
<path d="M2173 2831 c-12 -40 -29 -81 -55 -140 -20 -43 -26 -67 -19 -74 7 -7
16 2 27 27 17 35 19 36 76 36 54 0 59 -2 71 -27 14 -33 29 -45 40 -34 5 5 -14
57 -41 117 -40 90 -53 109 -71 110 -13 1 -25 -6 -28 -15z m54 -71 l21 -50 -44
0 c-24 0 -44 3 -44 7 0 13 35 93 41 93 3 0 15 -22 26 -50z"/>
<path d="M2536 2843 c-3 -3 -6 -55 -6 -115 0 -89 3 -108 15 -108 12 0 15 19
15 109 0 100 -6 131 -24 114z"/>
<path d="M2796 2819 c-8 -40 -8 -162 0 -183 3 -9 12 -16 20 -16 10 0 14 14 14
48 l0 49 40 1 c36 2 42 -2 65 -38 14 -22 25 -44 25 -49 0 -11 29 -23 40 -16 5
3 -4 27 -20 52 l-30 46 23 11 c32 17 44 59 24 89 -16 25 -64 37 -152 37 -40 0
-43 -2 -49 -31z m174 -14 c10 -12 10 -21 2 -40 -11 -23 -17 -25 -77 -25 l-65
0 0 40 0 40 64 0 c45 0 67 -4 76 -15z"/>
<path d="M3563 2835 c-36 -15 -73 -68 -73 -103 0 -77 88 -136 169 -112 48 14
85 40 73 52 -6 6 -21 2 -43 -11 -50 -30 -100 -27 -138 8 -41 39 -42 82 -2 122
24 24 38 29 77 29 31 0 54 -6 66 -17 17 -15 20 -15 28 -3 11 18 5 24 -39 39
-44 14 -79 13 -118 -4z"/>
<path d="M4002 2835 c-50 -22 -65 -42 -70 -94 -3 -40 0 -52 23 -79 70 -83 215
-52 231 50 7 41 -15 90 -49 112 -34 23 -97 28 -135 11z m109 -25 c29 -16 51
-67 44 -101 -8 -38 -53 -69 -100 -69 -48 0 -95 44 -95 90 0 46 47 90 95 90 20
0 45 -5 56 -10z"/>
<path d="M4407 2844 c-4 -4 -7 -45 -7 -91 0 -75 3 -86 24 -108 13 -13 39 -27
58 -30 46 -9 115 11 128 35 15 28 9 192 -7 198 -10 3 -13 -19 -13 -86 0 -107
-9 -122 -76 -122 -71 0 -86 23 -83 123 3 75 -4 100 -24 81z"/>
<path d="M4830 2833 c0 -7 19 -13 48 -15 l47 -3 1 -100 c1 -79 4 -100 15 -100
11 0 15 22 17 103 l3 104 44 -4 c38 -3 45 0 45 15 0 16 -10 17 -110 15 -78 -2
-110 -6 -110 -15z"/>
<path d="M5266 2843 c-10 -10 -7 -173 4 -193 22 -40 138 -49 185 -14 18 13 20
26 20 112 0 73 -3 97 -13 97 -10 0 -14 -24 -15 -93 -2 -106 -6 -112 -79 -112
-68 0 -78 14 -78 115 0 77 -7 104 -24 88z"/>
<path d="M5715 2842 c-7 -7 -6 -217 1 -225 3 -3 12 -3 20 0 9 3 14 21 14 53
l0 48 36 0 c38 0 65 -22 86 -70 7 -15 21 -28 30 -28 23 0 23 -1 -8 54 -20 37
-23 46 -10 46 18 0 46 37 46 61 0 9 -8 27 -18 39 -16 20 -29 23 -105 25 -47 1
-89 0 -92 -3z m169 -38 c36 -36 4 -64 -75 -64 l-59 0 0 40 0 40 59 0 c41 0 65
-5 75 -16z"/>
<path d="M6150 2730 l0 -115 102 2 c74 1 103 5 103 14 0 9 -24 11 -87 10 l-88
-2 0 40 0 41 66 0 c48 0 65 3 62 12 -3 8 -26 13 -64 13 l-59 0 -3 38 -3 37 91
0 c69 0 91 3 87 13 -2 8 -33 12 -105 12 l-102 1 0 -116z"/>
</g>
</svg>
