<?xml version="1.0" standalone="no"?>
<!DOCTYPE svg PUBLIC "-//W3C//DTD SVG 20010904//EN"
 "http://www.w3.org/TR/2001/REC-SVG-20010904/DTD/svg10.dtd">
<svg version="1.0" xmlns="http://www.w3.org/2000/svg"
 width="560.000000pt" height="400.000000pt" viewBox="0 0 560.000000 400.000000"
 preserveAspectRatio="xMidYMid meet">

<g transform="translate(0.000000,400.000000) scale(0.100000,-0.100000)"
fill="#000000" stroke="none">
<path d="M0 2000 l0 -2000 2800 0 2800 0 0 2000 0 2000 -2800 0 -2800 0 0
-2000z m1130 683 c0 -3 -21 -29 -47 -57 -52 -56 -239 -258 -318 -344 l-48 -53
45 -47 c39 -41 319 -342 551 -590 42 -46 77 -88 77 -93 0 -5 -42 -9 -94 -9
l-95 0 -301 345 c-165 190 -305 345 -310 345 -6 0 -10 -102 -10 -260 l0 -260
-65 0 -65 0 0 510 0 510 65 0 65 0 0 -211 c0 -120 4 -209 9 -207 5 2 60 62
122 133 62 72 146 167 187 213 l74 82 79 0 c43 0 79 -3 79 -7z m1626 -4 c86
-16 157 -55 219 -120 94 -99 135 -216 135 -389 0 -249 -107 -425 -297 -491
-49 -16 -84 -19 -265 -19 l-208 0 0 508 c0 280 3 512 7 515 11 11 345 8 409
-4z m1968 -16 c13 -26 140 -339 288 -708 33 -82 75 -181 94 -220 25 -51 30
-71 21 -77 -15 -10 -138 -10 -154 0 -6 4 -32 66 -58 137 -26 72 -52 136 -57
143 -8 9 -58 12 -207 10 l-196 -3 -45 -138 c-25 -76 -52 -142 -60 -147 -29
-19 -110 -10 -110 12 0 6 22 67 49 137 27 69 111 286 186 481 75 195 141 365
146 378 7 18 16 22 48 22 34 0 43 -4 55 -27z m-3252 -54 c185 -305 255 -414
266 -414 7 0 72 108 145 240 l132 240 63 3 c34 2 62 -1 62 -5 0 -4 -79 -134
-175 -287 l-175 -280 0 -222 c0 -221 0 -222 -22 -228 -13 -3 -37 -6 -55 -6
-65 0 -63 -8 -63 214 l0 202 -42 67 c-24 38 -112 173 -195 301 -84 128 -153
236 -153 239 0 4 38 7 84 7 l84 0 44 -71z m2399 59 c126 -43 195 -157 169
-281 -21 -101 -102 -189 -202 -219 -21 -6 -38 -13 -38 -16 0 -2 13 -21 28 -41
82 -105 312 -443 308 -450 -3 -5 -41 -8 -83 -7 l-78 1 -139 226 c-90 146 -149
232 -167 243 -32 19 -149 22 -167 4 -9 -9 -12 -76 -12 -240 l0 -227 -33 -6
c-18 -4 -49 -5 -68 -3 l-34 3 -3 513 -2 512 243 0 c159 0 256 -4 278 -12z
m1245 -1189 c32 -30 34 -114 4 -152 -47 -60 -150 -41 -170 31 -11 43 -6 87 14
114 31 42 111 46 152 7z m-1614 -4 c9 -20 8 -28 -5 -43 -15 -16 -15 -19 3 -30
13 -8 20 -23 20 -42 0 -42 -31 -60 -107 -60 l-63 0 0 100 0 100 70 0 c65 0 71
-2 82 -25z m145 -21 l30 -46 29 46 c17 26 37 45 47 46 20 0 20 -2 -30 -71 -25
-35 -33 -57 -33 -88 0 -34 -3 -41 -20 -41 -17 0 -20 7 -20 42 0 33 -8 52 -40
94 -22 29 -40 56 -40 59 0 3 11 5 24 5 17 0 32 -13 53 -46z m453 26 c11 -11
20 -27 20 -35 0 -25 -37 -50 -83 -55 -41 -5 -42 -6 -45 -47 -3 -35 -7 -43 -23
-43 -18 0 -19 8 -19 100 l0 100 65 0 c52 0 69 -4 85 -20z m140 -25 l0 -45 45
0 45 0 0 45 c0 38 3 45 20 45 19 0 20 -7 20 -100 0 -92 -1 -100 -19 -100 -17
0 -20 8 -23 48 l-3 47 -42 3 -43 3 0 -51 c0 -48 -2 -51 -22 -48 -22 3 -23 8
-26 101 l-3 97 26 0 c23 0 25 -3 25 -45z m276 8 c16 -21 31 -42 35 -46 3 -5
18 12 33 37 18 31 34 46 47 46 18 0 15 -7 -20 -57 -33 -45 -41 -65 -41 -100 0
-36 -3 -43 -20 -43 -17 0 -20 7 -20 39 0 22 -8 49 -18 62 -10 13 -31 41 -46
62 l-28 37 25 0 c18 0 34 -11 53 -37z m364 27 c0 -5 -16 -10 -35 -10 l-35 0 0
-90 c0 -83 -2 -90 -20 -90 -18 0 -20 8 -22 93 l-3 92 -32 -3 c-19 -2 -33 1
-33 7 0 7 32 11 90 11 53 0 90 -4 90 -10z"/>
<path d="M2510 2613 c-8 -3 -18 -11 -22 -17 -4 -6 -8 -198 -8 -426 0 -311 3
-419 12 -428 8 -8 50 -12 123 -12 99 0 117 3 162 25 114 57 175 203 174 420 0
188 -48 322 -140 392 -23 18 -58 37 -79 43 -39 10 -196 13 -222 3z"/>
<path d="M4630 2458 c-63 -177 -139 -415 -136 -425 6 -15 321 -19 330 -4 4 5
-23 87 -59 183 -94 248 -106 278 -115 278 -5 0 -13 -15 -20 -32z"/>
<path d="M3507 2602 c-24 -27 -25 -373 -2 -392 11 -9 44 -11 120 -7 142 7 202
34 239 109 46 93 27 217 -40 265 -44 31 -99 43 -205 43 -80 0 -99 -3 -112 -18z"/>
<path d="M5002 1465 c-17 -37 -15 -107 4 -133 21 -30 59 -29 80 3 19 29 15
114 -6 140 -21 25 -65 19 -78 -10z"/>
<path d="M3397 1484 c-4 -4 -7 -20 -7 -36 0 -25 4 -28 30 -28 34 0 49 23 33
49 -11 17 -44 26 -56 15z"/>
<path d="M3390 1361 c0 -43 15 -55 55 -45 55 14 38 84 -20 84 -34 0 -35 -1
-35 -39z"/>
<path d="M3997 1483 c-4 -3 -7 -24 -7 -45 0 -32 3 -38 21 -38 52 0 76 41 43
74 -16 16 -46 21 -57 9z"/>
</g>
</svg>
