<?xml version="1.0" standalone="no"?>
<!DOCTYPE svg PUBLIC "-//W3C//DTD SVG 20010904//EN"
 "http://www.w3.org/TR/2001/REC-SVG-20010904/DTD/svg10.dtd">
<svg version="1.0" xmlns="http://www.w3.org/2000/svg"
 width="827.000000pt" height="827.000000pt" viewBox="0 0 827.000000 827.000000"
 preserveAspectRatio="xMidYMid meet">

<g transform="translate(0.000000,827.000000) scale(0.100000,-0.100000)"
fill="#000000" stroke="none">
<path d="M1008 4854 c-12 -11 -10 -194 2 -194 6 0 10 20 10 45 0 44 1 45 33
45 92 0 94 94 2 107 -22 2 -43 1 -47 -3z m83 -30 c28 -25 8 -54 -36 -54 -33 0
-35 2 -35 35 0 31 3 35 27 35 14 0 35 -7 44 -16z"/>
<path d="M1497 4854 c-11 -11 -8 -194 3 -194 6 0 10 20 10 45 0 36 3 45 18 45
10 0 29 -19 44 -45 15 -25 32 -45 38 -45 12 0 -3 34 -27 61 -13 15 -11 20 11
42 29 29 32 45 14 70 -14 17 -98 33 -111 21z m84 -24 c23 -13 25 -46 3 -54 -9
-3 -29 -6 -45 -6 -25 0 -29 4 -29 28 0 16 3 32 7 35 10 10 42 8 64 -3z"/>
<path d="M2035 4851 c-39 -16 -60 -51 -60 -98 0 -38 5 -49 33 -74 47 -43 102
-41 148 5 85 85 -8 213 -121 167z m102 -31 c30 -27 36 -55 23 -96 -29 -87
-162 -63 -162 30 0 75 86 116 139 66z"/>
<path d="M2562 4845 c-13 -17 -7 -178 6 -183 8 -2 12 12 12 42 l0 46 45 0 c25
0 45 5 45 10 0 6 -20 10 -45 10 -45 0 -45 0 -45 35 l0 35 51 0 c29 0 48 4 44
10 -8 12 -104 9 -113 -5z"/>
<path d="M3053 4853 c-9 -3 -13 -33 -13 -98 0 -105 0 -105 82 -105 67 0 60 23
-8 24 l-49 1 0 35 c0 35 0 35 48 38 63 4 60 22 -4 22 l-50 0 3 33 c3 31 4 32
56 35 30 2 50 7 47 13 -6 9 -90 11 -112 2z"/>
<path d="M3550 4840 c-35 -35 -24 -62 41 -95 47 -23 57 -50 27 -69 -13 -8 -26
-7 -50 2 -38 14 -51 6 -24 -14 28 -20 73 -17 96 6 35 35 23 65 -37 91 -53 23
-64 46 -34 70 18 15 27 16 47 7 27 -13 47 -2 24 12 -25 16 -69 11 -90 -10z"/>
<path d="M4042 4844 c-38 -27 -26 -64 30 -94 35 -18 48 -31 48 -47 0 -28 -43
-42 -72 -24 -27 17 -38 3 -14 -15 21 -15 64 -18 82 -6 19 12 34 50 28 67 -4 9
-27 25 -51 36 -48 21 -62 41 -42 65 10 12 23 14 51 10 41 -7 53 8 16 18 -36 9
-52 7 -76 -10z"/>
<path d="M4951 4847 c-68 -40 -66 -153 4 -185 65 -30 133 -2 155 62 12 38 -3
89 -33 115 -24 19 -97 24 -126 8z m113 -28 c21 -16 26 -29 26 -64 0 -35 -5
-48 -26 -64 -38 -30 -89 -27 -121 5 -22 22 -25 32 -20 67 7 50 36 77 82 77 18
0 44 -9 59 -21z"/>
<path d="M6055 4766 c-48 -104 -54 -126 -30 -106 8 7 15 18 15 25 0 17 23 25
73 25 37 0 44 -4 61 -33 11 -19 21 -27 23 -19 3 7 -1 23 -9 35 -7 12 -24 49
-37 82 -41 103 -44 102 -96 -9z m85 -27 c0 -11 -11 -16 -40 -17 -22 -1 -40 1
-40 4 0 3 10 28 22 57 l22 51 18 -40 c10 -21 18 -46 18 -55z"/>
<path d="M4510 4755 c0 -57 4 -95 10 -95 6 0 10 38 10 95 0 57 -4 95 -10 95
-6 0 -10 -38 -10 -95z"/>
<path d="M5480 4756 c0 -57 4 -96 10 -96 6 0 10 33 10 80 0 47 4 80 10 80 6 0
10 -4 10 -9 0 -18 113 -162 121 -154 14 14 14 186 0 191 -10 3 -12 -16 -9 -77
2 -45 0 -80 -4 -79 -4 2 -31 37 -60 78 -77 107 -88 105 -88 -14z"/>
<path d="M6562 4753 l3 -98 53 -3 c31 -2 52 1 52 7 0 6 -20 11 -45 11 l-45 0
0 90 c0 55 -4 90 -10 90 -7 0 -10 -35 -8 -97z"/>
<path d="M1147 4396 c-95 -26 -152 -91 -144 -168 9 -98 55 -128 252 -161 107
-19 141 -28 158 -46 20 -20 21 -23 7 -49 -19 -33 -67 -51 -140 -51 -73 -1
-116 12 -163 50 -39 31 -40 32 -93 20 -29 -7 -56 -16 -58 -20 -8 -13 54 -80
97 -105 58 -34 151 -50 255 -44 158 9 242 72 242 179 0 56 -28 103 -77 128
-21 10 -100 30 -176 44 -76 14 -145 31 -153 38 -15 12 -18 47 -6 66 32 50 213
42 273 -13 15 -13 26 -14 78 -3 34 6 61 17 61 23 0 14 -42 54 -84 81 -70 43
-228 58 -329 31z"/>
<path d="M3931 4400 c-53 -11 -114 -50 -138 -87 -22 -33 -24 -109 -3 -147 25
-48 85 -74 221 -96 149 -25 177 -35 185 -66 12 -48 -49 -84 -143 -84 -80 0
-124 15 -167 54 l-37 33 -54 -15 c-30 -8 -55 -21 -55 -28 0 -21 49 -73 94 -98
57 -34 149 -50 248 -43 110 7 152 21 201 67 38 35 41 42 45 102 4 58 2 67 -23
96 -36 43 -73 57 -218 83 -142 25 -177 40 -177 73 0 37 34 59 100 64 78 6 120
-3 165 -34 35 -23 40 -24 96 -13 32 6 59 17 59 23 0 23 -67 77 -121 98 -62 23
-206 33 -278 18z"/>
<path d="M1700 4115 l0 -285 270 0 270 0 0 50 0 50 -207 2 -208 3 -3 67 -3 68
187 2 188 3 0 50 1 50 -188 3 -188 2 3 56 3 55 205 2 205 2 0 50 0 50 -267 3
-268 2 0 -285z"/>
<path d="M2390 4114 l0 -285 233 3 c259 3 277 8 324 78 41 60 21 186 -32 206
-19 8 -19 24 1 38 8 6 19 29 24 51 19 82 -27 159 -109 184 -23 6 -118 11 -240
11 l-201 0 0 -286z m394 176 c63 -24 49 -102 -21 -114 -48 -7 -167 -8 -215 0
-35 6 -36 8 -40 55 -1 27 -1 54 0 59 5 13 242 13 276 0z m44 -239 c31 -26 29
-74 -4 -100 -24 -19 -40 -21 -170 -21 l-144 0 0 70 0 70 148 0 c131 0 152 -2
170 -19z"/>
<path d="M3297 4358 c-14 -24 -44 -79 -67 -123 -24 -44 -80 -151 -126 -237
-46 -87 -84 -160 -84 -163 0 -3 29 -5 64 -5 l65 0 33 63 33 62 155 3 155 2 33
-65 32 -65 66 0 c63 0 65 1 58 23 -3 12 -10 27 -14 32 -4 6 -38 69 -75 140
-37 72 -80 153 -95 180 -15 28 -44 83 -65 123 l-37 72 -54 0 c-52 0 -54 -1
-77 -42z m123 -195 c25 -49 46 -91 48 -95 2 -5 -42 -8 -98 -8 -56 0 -100 3
-98 8 29 61 94 182 98 182 3 0 26 -39 50 -87z"/>
<path d="M4420 4350 l0 -50 110 0 110 0 0 -235 0 -235 60 0 60 0 2 233 3 232
113 3 113 3 -3 47 -3 47 -282 3 -283 2 0 -50z"/>
<path d="M5090 4115 l0 -285 60 0 60 0 0 285 0 285 -60 0 -60 0 0 -285z"/>
<path d="M5583 4388 c-6 -7 -36 -62 -68 -123 -32 -60 -74 -139 -93 -175 -67
-124 -132 -249 -132 -255 0 -3 29 -5 64 -5 l64 0 27 53 c43 82 31 78 199 75
l151 -3 33 -62 33 -63 65 0 c35 0 64 3 64 6 0 6 -42 88 -198 384 -102 195 -90
180 -148 180 -29 0 -56 -5 -61 -12z m109 -231 l47 -92 -96 -3 c-52 -1 -97 -1
-99 1 -5 4 89 187 96 187 3 0 26 -42 52 -93z"/>
<path d="M6080 4390 c0 -5 0 -133 -1 -282 l0 -273 55 -3 56 -3 2 197 3 198
184 -197 184 -197 59 0 58 0 -2 283 -3 282 -57 3 -58 3 -2 -202 -3 -202 -150
164 c-82 90 -165 181 -184 202 -32 34 -40 37 -88 37 -29 0 -53 -4 -53 -10z"/>
<path d="M6781 3918 c9 -7 19 -20 23 -28 3 -8 4 -4 3 10 -1 16 -9 26 -22 28
-18 3 -18 3 -4 -10z"/>
<path d="M6860 3916 c0 -8 5 -18 10 -21 6 -3 10 1 10 9 0 8 -4 18 -10 21 -5 3
-10 -1 -10 -9z"/>
<path d="M6940 3904 c0 -8 5 -12 10 -9 6 3 10 10 10 16 0 5 -4 9 -10 9 -5 0
-10 -7 -10 -16z"/>
<path d="M6893 3867 c4 -10 7 -23 7 -28 0 -5 5 -9 10 -9 15 0 12 20 -7 38 -16
16 -16 16 -10 -1z"/>
<path d="M6861 3844 c0 -11 3 -14 6 -6 3 7 2 16 -1 19 -3 4 -6 -2 -5 -13z"/>
</g>
</svg>
