<?xml version="1.0" standalone="no"?>
<!DOCTYPE svg PUBLIC "-//W3C//DTD SVG 20010904//EN"
 "http://www.w3.org/TR/2001/REC-SVG-20010904/DTD/svg10.dtd">
<svg version="1.0" xmlns="http://www.w3.org/2000/svg"
 width="1200.000000pt" height="675.000000pt" viewBox="0 0 1200.000000 675.000000"
 preserveAspectRatio="xMidYMid meet">

<g transform="translate(0.000000,675.000000) scale(0.100000,-0.100000)"
fill="#000000" stroke="none">
<path d="M5130 4550 c-96 -17 -187 -78 -216 -146 -7 -18 -36 -48 -63 -67 -61
-44 -95 -100 -120 -199 -10 -42 -21 -81 -25 -86 -3 -6 -44 -36 -91 -68 -96
-65 -103 -81 -58 -135 26 -31 27 -32 10 -62 -15 -26 -16 -32 -3 -51 12 -19 11
-24 -5 -45 -17 -21 -18 -26 -6 -45 9 -14 12 -41 9 -82 -4 -54 -1 -65 18 -84
23 -23 26 -23 187 -17 94 4 186 2 216 -4 76 -14 135 -55 182 -124 28 -43 41
-55 43 -42 6 32 -30 126 -64 166 -56 65 -94 75 -289 78 -146 1 -171 4 -182 19
-10 13 -9 24 3 53 12 29 13 40 3 58 -10 19 -9 26 5 41 16 18 15 20 -5 34 -21
13 -21 15 -5 46 13 24 14 37 6 52 -6 11 -15 20 -20 20 -5 0 -14 9 -19 19 -9
16 0 27 64 75 91 68 101 83 114 165 10 64 42 120 86 150 11 8 47 41 81 73 71
68 120 88 215 88 117 0 148 -16 506 -259 271 -184 357 -221 513 -221 98 0 189
26 374 106 281 122 390 134 480 50 33 -32 40 -29 31 14 -9 41 -57 95 -109 123
-88 47 -270 15 -458 -79 -291 -146 -461 -112 -848 170 -245 179 -410 243 -560
216z"/>
<path d="M5200 4259 c-28 -11 -60 -38 -60 -50 0 -5 28 -6 63 -3 120 11 200
-33 385 -210 166 -158 230 -209 324 -255 105 -52 182 -71 281 -71 141 0 245
29 522 148 179 77 243 96 330 96 78 0 122 -19 169 -75 45 -53 45 9 0 88 -54
94 -174 124 -334 83 -47 -12 -159 -53 -249 -91 -217 -92 -292 -113 -406 -113
-106 1 -176 19 -289 76 -101 51 -186 107 -300 198 -122 99 -198 149 -256 171
-54 20 -139 24 -180 8z"/>
<path d="M5398 3933 c-27 -7 -22 -19 15 -34 17 -7 105 -84 193 -172 175 -172
238 -224 326 -268 153 -77 369 -79 593 -4 39 13 147 57 241 98 195 86 272 109
364 110 80 0 128 -20 174 -75 58 -68 62 9 5 95 -62 94 -180 120 -354 77 -77
-18 -109 -30 -362 -134 -186 -76 -249 -91 -393 -90 -105 0 -136 3 -190 23 -96
33 -199 102 -327 216 -143 128 -223 173 -285 158z"/>
<path d="M4130 3183 c0 -5 31 -105 70 -223 38 -118 82 -254 97 -302 l27 -88
62 0 62 0 30 78 c17 42 54 138 82 212 28 74 53 136 55 139 5 5 9 -5 90 -224
35 -93 66 -178 70 -187 6 -15 20 -18 70 -18 l63 0 101 303 c56 166 101 306
101 310 0 4 -28 7 -62 5 l-62 -3 -68 -209 c-37 -115 -70 -211 -73 -214 -6 -6
-13 13 -86 218 -34 96 -69 181 -77 188 -26 20 -106 15 -127 -7 -9 -11 -48
-104 -85 -207 -38 -102 -71 -188 -74 -191 -2 -3 -30 76 -61 174 -87 277 -70
247 -143 251 -34 2 -62 -1 -62 -5z"/>
<path d="M5281 3180 c-31 -5 -52 -16 -72 -37 -25 -29 -27 -39 -34 -155 -8
-138 -1 -311 14 -352 6 -14 25 -35 43 -46 31 -19 51 -20 306 -20 301 0 286 -4
258 65 l-15 35 -228 0 c-165 0 -232 3 -241 12 -7 7 -12 40 -12 80 l0 68 181 0
180 0 -3 53 -3 52 -177 3 -178 2 0 60 c0 48 4 61 19 70 12 6 105 10 234 10
239 0 239 0 241 66 l1 36 -235 3 c-129 1 -255 -1 -279 -5z"/>
<path d="M5890 2920 c0 -287 4 -315 49 -339 10 -6 116 -11 247 -11 l229 -1 -2
37 c-4 63 -7 64 -198 64 -96 0 -180 3 -189 6 -14 5 -16 38 -16 260 l0 254 -60
0 -60 0 0 -270z"/>
<path d="M6480 2920 c0 -293 3 -315 54 -338 16 -7 96 -12 218 -12 l193 -2 21
34 c45 72 55 68 -154 68 -133 0 -192 4 -200 12 -9 9 -12 80 -12 260 l0 248
-60 0 -60 0 0 -270z"/>
<path d="M7345 3181 c-36 -15 -52 -43 -188 -328 l-134 -281 69 -4 70 -3 29 58
c28 55 30 57 72 58 124 4 344 4 359 1 10 -2 29 -28 42 -58 l25 -54 70 0 c39 0
71 2 71 4 0 3 -37 82 -208 438 -81 169 -91 178 -194 177 -35 0 -72 -4 -83 -8z
m171 -231 c34 -69 64 -135 68 -147 l7 -23 -165 0 c-91 0 -166 2 -166 4 0 12
124 264 138 279 34 38 54 19 118 -113z"/>
<path d="M4208 2454 c-5 -4 -8 -63 -8 -131 0 -101 3 -123 14 -123 11 0 16 14
18 48 l3 47 76 5 c42 3 83 11 92 18 36 30 28 100 -14 123 -26 14 -171 25 -181
13z m170 -40 c12 -8 22 -26 22 -39 0 -37 -35 -55 -107 -55 l-63 0 0 55 0 55
63 0 c40 0 70 -5 85 -16z"/>
<path d="M4513 2453 c-10 -3 -13 -39 -13 -129 0 -104 2 -124 15 -124 12 0 15
13 15 55 l0 55 44 0 c41 0 46 -3 86 -55 23 -30 49 -55 56 -55 20 0 18 5 -27
63 -41 51 -41 52 -18 57 52 13 64 96 17 121 -22 12 -151 20 -175 12z m161 -39
c21 -20 20 -43 -1 -66 -12 -14 -31 -18 -80 -18 l-63 0 0 50 0 50 64 0 c45 0
69 -5 80 -16z"/>
<path d="M4844 2445 c-43 -22 -59 -57 -59 -126 1 -46 5 -63 24 -82 56 -61 193
-56 232 7 30 47 23 147 -13 182 -33 34 -135 44 -184 19z m161 -40 c20 -20 25
-34 25 -77 -1 -78 -32 -108 -114 -108 -33 0 -52 6 -73 24 -24 21 -28 31 -28
79 0 45 5 60 24 81 21 22 33 26 83 26 49 0 63 -4 83 -25z"/>
<path d="M5148 2393 c-4 -97 1 -193 12 -193 5 0 10 26 12 58 l3 57 78 3 c42 2
77 7 77 12 0 5 -35 10 -77 12 l-78 3 0 40 0 40 88 5 c122 7 116 24 -10 28
l-101 3 -4 -68z"/>
<path d="M5430 2328 l0 -129 108 3 c127 4 144 23 19 23 -45 0 -87 3 -93 7 -9
6 -10 33 -5 81 1 4 35 7 76 7 43 0 75 4 75 10 0 6 -31 10 -74 10 -71 0 -74 1
-79 26 -11 59 -3 64 95 64 67 0 89 3 85 13 -2 8 -34 12 -105 13 l-102 2 0
-130z"/>
<path d="M5736 2438 c-57 -53 -34 -99 61 -118 65 -14 83 -24 83 -50 0 -44 -69
-63 -139 -39 -18 6 -35 8 -38 5 -11 -11 13 -27 56 -37 79 -18 151 20 151 77 0
26 -44 64 -74 64 -39 0 -94 20 -100 37 -4 9 1 24 11 35 15 17 28 19 85 16 70
-4 87 5 42 22 -46 18 -111 12 -138 -12z"/>
<path d="M5989 2431 c-16 -16 -29 -37 -29 -45 0 -28 36 -53 90 -65 67 -15 90
-27 90 -51 0 -44 -77 -61 -157 -35 -17 5 -23 3 -23 -8 0 -17 81 -40 115 -33
11 3 26 5 33 5 23 2 62 49 62 76 0 31 -42 60 -102 69 -54 9 -78 23 -78 46 0
30 36 43 107 37 35 -2 63 -1 63 4 0 15 -47 29 -96 29 -37 0 -51 -6 -75 -29z"/>
<path d="M6256 2453 c-3 -3 -6 -62 -6 -130 0 -103 2 -123 15 -123 13 0 15 20
15 124 0 114 -6 147 -24 129z"/>
<path d="M6434 2446 c-47 -21 -64 -52 -64 -116 0 -76 24 -113 83 -129 94 -27
178 14 193 93 8 48 -8 105 -40 135 -31 29 -126 38 -172 17z m153 -40 c24 -21
28 -31 28 -79 0 -85 -48 -120 -141 -103 -56 11 -74 36 -74 105 0 52 3 62 26
80 39 31 123 29 161 -3z"/>
<path d="M6730 2330 c0 -112 2 -130 16 -130 13 0 15 14 14 93 -1 50 -2 98 -1
106 1 8 46 -33 102 -92 56 -59 105 -107 110 -107 5 0 9 59 9 131 0 84 -4 128
-10 124 -6 -3 -10 -51 -10 -108 l-1 -102 -103 108 c-57 59 -109 107 -115 107
-7 0 -11 -42 -11 -130z"/>
<path d="M7187 2447 c-9 -7 -39 -57 -68 -112 -28 -55 -56 -104 -60 -110 -13
-13 -11 -25 4 -25 7 0 21 14 30 30 18 30 19 30 107 30 89 0 90 0 105 -30 9
-16 23 -30 31 -30 9 0 14 3 12 8 -15 35 -131 243 -137 247 -5 2 -15 -1 -24 -8z
m51 -82 c17 -35 32 -67 32 -70 0 -3 -31 -5 -70 -5 -38 0 -70 2 -70 5 0 10 65
135 70 135 3 0 20 -29 38 -65z"/>
<path d="M7419 2458 c0 -2 -2 -60 -2 -131 l-2 -127 103 0 c84 0 102 3 102 15
0 12 -17 15 -90 15 l-90 0 0 115 c0 70 -4 115 -10 115 -5 0 -10 -1 -11 -2z"/>
<path d="M7720 2453 c-49 -18 -66 -75 -32 -106 10 -9 46 -23 81 -31 83 -19 98
-39 60 -77 -18 -18 -30 -20 -73 -16 -28 2 -59 8 -68 12 -13 5 -18 3 -18 -9 0
-19 39 -31 98 -30 78 1 117 42 96 102 -8 21 -21 29 -78 43 -38 10 -76 25 -85
34 -15 15 -14 18 9 37 20 17 35 19 87 16 44 -3 63 0 63 8 0 19 -100 32 -140
17z"/>
</g>
</svg>
