<?xml version="1.0" encoding="utf-8"?>
<!-- Generator: Adobe Illustrator 21.0.2, SVG Export Plug-In . SVG Version: 6.00 Build 0)  -->
<svg version="1.1" id="Layer_1" xmlns="http://www.w3.org/2000/svg" xmlns:xlink="http://www.w3.org/1999/xlink" x="0px" y="0px"
	 viewBox="0 0 100 100" style="enable-background:new 0 0 100 100;" xml:space="preserve">
<path d="M99,41.4H70.9l19.9-19.9L78.5,9.2L58.7,29.1V1H41.4v28.1L21.5,9.2L9.2,21.5l19.9,19.9L1,41.4l0,17.3l28.1,0L9.2,78.5
	l12.2,12.2l19.9-19.9V99h17.3V70.9l19.9,19.9l12.2-12.2L70.9,58.6l28.1,0V41.4z M50.2,68.3c-10,0-18.1-8.1-18.1-18.1
	s8.1-18.1,18.1-18.1c10,0,18.1,8.1,18.1,18.1S60.2,68.3,50.2,68.3z"/>
</svg>
